<?xml version="1.0"?>
<svg xmlns="http://www.w3.org/2000/svg" xmlns:xlink="http://www.w3.org/1999/xlink" xmlns:svgjs="http://svgjs.com/svgjs" version="1.1" width="512" height="512" x="0" y="0" viewBox="0 0 360.205 360.205" style="enable-background:new 0 0 512 512" xml:space="preserve" class=""><g>
<g xmlns="http://www.w3.org/2000/svg">
	<g id="Layer_5_13_">
		<g>
			<path d="M309.629,132.476c0,0-89.022-46.17-119.903-64.514c-1.188-0.705-3.203-2.094-3.203-4.508V48.69     c0-1.746,1.238-3.889,2.752-4.76l34.012-19.588c1.513-0.871,1.513-2.298,0-3.169L189.275,1.586     C187.761,0.714,185.094,0,183.348,0h-6.703c-1.747,0-3.175,1.43-3.175,3.176v60.313c0,2.379-1.844,3.768-2.989,4.473     C139.898,86.803,51.22,132.185,51.22,132.185c-0.738,0.416-11.184,5.235-3.782,5.235h266.695     C320.612,137.42,310.404,132.892,309.629,132.476z" fill="#ffffff" data-original="#000000" style="" class=""/>
			<path d="M328.009,354.233L309.76,234.402c-0.898-5.908-4.654-4.281-6.617-3.662c-4.488,1.418-9.257,2.146-14.163,2.146     c-5.771,0-11.383-1.028-16.676-3.049c-1.475-0.559-2.914-1.16-4.275-1.885c-6.268-3.341-8.021-1.47-9.34-0.623     c-7.105,4.554-15.695,7.063-24.646,7.063c-6.572,0-12.959-1.339-18.715-3.88c-2.163-0.954-5.518-4.047-10.171-0.401     c-6.759,5.293-15.888,7.33-25.054,7.33c-8.765,0-17.137-2.37-24.114-6.712c-1.728-1.076-4.306-3.735-9.004-1.224     c-6.211,3.318-13.436,4.887-20.82,4.887c-8.418,0-16.535-2.218-23.372-6.27c-1.784-1.059-4.561-4.039-9.466-0.785     c-1.638,1.087-3.535,1.768-5.424,2.5c-5.256,2.021-10.87,3.049-16.676,3.049c-4.561,0-9.026-0.65-13.257-1.889     c-2.284-0.668-6.222-2.415-7.717,4.668L32.197,354.233c-0.478,3.116,1.923,5.936,5.099,5.936c0,0,20.578,0.01,27.437,0.01     c5.557,0,6.779-3.876,6.779-3.876l15.714-45.053c1.726-4.947,3.896-4.775,4.823,0.383l8.013,44.572c0,0,0.836,3.984,6.216,3.984     c8.587,0,34.35,0.016,34.35,0.016c4.01,0,7.603-2.506,9.012-6.256l25.941-73.855c1.512-4.301,7.573-4.301,9.079,0l25.911,73.855     c1.409,3.75,5.002,6.256,9.012,6.256c0,0,24.968-0.016,33.29-0.016c6.615,0,7.426-4.823,7.426-4.823l7.862-43.733     c0.926-5.158,3.097-5.33,4.823-0.383l15.457,44.316c0,0,2.007,4.612,7.034,4.612c6.859,0,27.438-0.01,27.438-0.01     C326.049,360.168,328.488,357.349,328.009,354.233z" fill="#ffffff" data-original="#000000" style="" class=""/>
			<path d="M313.802,157.687c-67.213,0-199.727,0-268.846,0c-6.185,0-6.185,4.729-6.185,4.729v24.104     c0,9.525,5.583,17.891,14.11,22.898c5.226,3.043,11.546,4.839,18.345,4.839c9.429,0,17.897-3.429,23.831-8.915     c0.798-0.738,1.826-1.125,2.849-1.125c1.125,0,2.25,0.453,3.079,1.318c5.97,6.254,15.012,10.229,25.179,10.229     c8.819,0,16.833-3.012,22.669-7.889c0.804-0.67,1.735-0.99,2.698-0.99c1.118,0,2.244,0.447,3.078,1.343     c5.934,6.446,15.169,10.583,25.494,10.583c10.325,0,19.561-4.137,25.493-10.583c0.836-0.896,1.96-1.343,3.08-1.343     c0.961,0,1.923,0.32,2.696,0.99c5.837,4.877,13.851,7.889,22.67,7.889c10.167,0,19.209-3.975,25.18-10.229     c0.828-0.865,1.953-1.318,3.078-1.318c1.021,0,2.021,0.355,2.849,1.125c5.934,5.486,14.401,8.915,23.831,8.915     c6.797,0,13.118-1.796,18.344-4.839c8.529-5.008,14.11-13.408,14.11-22.898v-22.254     C321.434,164.267,321.434,157.687,313.802,157.687z M68.172,197.527c-8.038,0-14.554-6.518-14.554-14.554     c0-8.038,6.516-14.554,14.554-14.554s14.554,6.516,14.554,14.554C82.726,191.009,76.21,197.527,68.172,197.527z M124.535,197.527     c-8.038,0-14.554-6.518-14.554-14.554c0-8.038,6.516-14.554,14.554-14.554s14.554,6.516,14.554,14.554     C139.088,191.009,132.572,197.527,124.535,197.527z M180.099,197.527c-8.037,0-14.553-6.518-14.553-14.554     c0-8.038,6.516-14.554,14.553-14.554c8.038,0,14.554,6.516,14.554,14.554C194.653,191.009,188.137,197.527,180.099,197.527z      M234.609,197.527c-8.038,0-14.554-6.518-14.554-14.554c0-8.038,6.516-14.554,14.554-14.554c8.037,0,14.554,6.516,14.554,14.554     C249.163,191.009,242.646,197.527,234.609,197.527z M291.236,197.527c-8.038,0-14.554-6.518-14.554-14.554     c0-8.038,6.516-14.554,14.554-14.554c8.037,0,14.553,6.516,14.553,14.554C305.789,191.009,299.273,197.527,291.236,197.527z" fill="#ffffff" data-original="#000000" style="" class=""/>
		</g>
	</g>
</g>
<g xmlns="http://www.w3.org/2000/svg">
</g>
<g xmlns="http://www.w3.org/2000/svg">
</g>
<g xmlns="http://www.w3.org/2000/svg">
</g>
<g xmlns="http://www.w3.org/2000/svg">
</g>
<g xmlns="http://www.w3.org/2000/svg">
</g>
<g xmlns="http://www.w3.org/2000/svg">
</g>
<g xmlns="http://www.w3.org/2000/svg">
</g>
<g xmlns="http://www.w3.org/2000/svg">
</g>
<g xmlns="http://www.w3.org/2000/svg">
</g>
<g xmlns="http://www.w3.org/2000/svg">
</g>
<g xmlns="http://www.w3.org/2000/svg">
</g>
<g xmlns="http://www.w3.org/2000/svg">
</g>
<g xmlns="http://www.w3.org/2000/svg">
</g>
<g xmlns="http://www.w3.org/2000/svg">
</g>
<g xmlns="http://www.w3.org/2000/svg">
</g>
</g></svg>
