<?xml version="1.0"?>
<svg xmlns="http://www.w3.org/2000/svg" xmlns:xlink="http://www.w3.org/1999/xlink" xmlns:svgjs="http://svgjs.com/svgjs" version="1.1" width="512" height="512" x="0" y="0" viewBox="0 0 512 512" style="enable-background:new 0 0 512 512" xml:space="preserve" class=""><g><g xmlns="http://www.w3.org/2000/svg"><path d="m482 0h-210c-16.569 0-30 13.431-30 30v133.67l106.331 106.33h133.669c16.569 0 30-13.431 30-30v-210c0-16.569-13.431-30-30-30zm-162.932 92.068c-8.284 0-15-6.716-15-15s6.716-15 15-15 15 6.716 15 15-6.716 15-15 15zm57.932 57.932c-8.284 0-15-6.716-15-15s6.716-15 15-15 15 6.716 15 15-6.716 15-15 15zm57.926 57.926c-8.284 0-15-6.716-15-15s6.716-15 15-15 15 6.716 15 15-6.716 15-15 15z" fill="#ffffff" data-original="#000000" style="" class=""/><path d="m348.198 312.294-148.492-148.492c-11.716-11.716-30.711-11.716-42.426 0l-148.493 148.492c-11.716 11.716-11.716 30.711 0 42.426l148.492 148.492c11.716 11.716 30.711 11.716 42.426 0l148.492-148.492c11.717-11.715 11.717-30.71.001-42.426zm-233.345 42.427c-5.858 5.858-15.355 5.858-21.213 0s-5.858-15.355 0-21.213 15.355-5.858 21.213 0c5.858 5.857 5.858 15.355 0 21.213zm21.213-42.427c-5.858-5.858-5.858-15.355 0-21.213s15.355-5.858 21.213 0 5.858 15.355 0 21.213-15.355 5.858-21.213 0zm42.426 106.066c-5.858 5.858-15.355 5.858-21.213 0s-5.858-15.355 0-21.213 15.355-5.858 21.213 0 5.858 15.356 0 21.213zm0-148.492c-5.858-5.858-5.858-15.355 0-21.213s15.355-5.858 21.213 0 5.858 15.355 0 21.213c-5.857 5.858-15.355 5.858-21.213 0zm42.427 106.066c-5.858 5.858-15.355 5.858-21.213 0s-5.858-15.355 0-21.213 15.355-5.858 21.213 0 5.858 15.355 0 21.213zm42.426-42.426c-5.858 5.858-15.355 5.858-21.213 0s-5.858-15.355 0-21.213 15.355-5.858 21.213 0c5.858 5.857 5.858 15.355 0 21.213z" fill="#ffffff" data-original="#000000" style="" class=""/></g></g></svg>
