<?xml version="1.0"?>
<svg xmlns="http://www.w3.org/2000/svg" xmlns:xlink="http://www.w3.org/1999/xlink" xmlns:svgjs="http://svgjs.com/svgjs" version="1.1" width="512" height="512" x="0" y="0" viewBox="0 0 512 512" style="enable-background:new 0 0 512 512" xml:space="preserve" class=""><g><g xmlns="http://www.w3.org/2000/svg"><path d="m18.345 333.227h30v30h-30z" transform="matrix(.924 -.383 .383 .924 -130.722 39.268)" fill="#ffffff" data-original="#000000" style=""/><path d="m463.655 148.773h30v30h-30z" transform="matrix(.924 -.383 .383 .924 -26.238 195.639)" fill="#ffffff" data-original="#000000" style=""/><path d="m148.773 463.655h30v30h-30z" transform="matrix(.383 -.924 .924 .383 -341.12 446.788)" fill="#ffffff" data-original="#000000" style=""/><path d="m333.227 18.345h30v30h-30z" transform="matrix(.383 -.924 .924 .383 184.16 342.304)" fill="#ffffff" data-original="#000000" style=""/><path d="m333.227 463.655h30v30h-30z" transform="matrix(.924 -.383 .383 .924 -156.667 169.697)" fill="#ffffff" data-original="#000000" style=""/><path d="m148.773 18.345h30v30h-30z" transform="matrix(.924 -.383 .383 .924 -.294 65.212)" fill="#ffffff" data-original="#000000" style=""/><path d="m463.655 333.227h30v30h-30z" transform="matrix(.383 -.924 .924 .383 -26.238 657.186)" fill="#ffffff" data-original="#000000" style=""/><path d="m18.345 148.773h30v30h-30z" transform="matrix(.383 -.924 .924 .383 -130.722 131.907)" fill="#ffffff" data-original="#000000" style=""/><path d="m256 0c-24.813 0-45 20.187-45 45 0 5.087.854 10.099 2.536 14.898l42.464 121.102 42.466-121.104c1.681-4.8 2.534-9.812 2.534-14.896 0-24.813-20.187-45-45-45z" fill="#ffffff" data-original="#000000" style=""/><path d="m256 331-42.464 121.102c-1.682 4.799-2.536 9.811-2.536 14.898 0 24.813 20.187 45 45 45s45-20.187 45-45c0-5.084-.853-10.096-2.535-14.898z" fill="#ffffff" data-original="#000000" style=""/><path d="m138.62 74.981c-17.545-17.547-46.095-17.545-63.64 0s-17.545 46.094.001 63.641c3.597 3.595 7.743 6.536 12.326 8.739l115.659 55.606-55.605-115.658c-2.202-4.582-5.142-8.729-8.741-12.328z" fill="#ffffff" data-original="#000000" style=""/><path d="m424.691 364.638-115.657-55.604 55.604 115.657c2.202 4.582 5.144 8.73 8.742 12.329 8.772 8.773 20.296 13.159 31.819 13.159 11.524 0 23.048-4.386 31.82-13.159 17.545-17.545 17.545-46.094-.001-63.641-3.594-3.594-7.74-6.534-12.327-8.741z" fill="#ffffff" data-original="#000000" style=""/><path d="m59.896 213.534c-4.8-1.681-9.811-2.534-14.896-2.534-24.813 0-45 20.187-45 45s20.187 45 45 45c5.087 0 10.099-.853 14.897-2.536l121.102-42.464z" fill="#ffffff" data-original="#000000" style=""/><path d="m467 211c-5.085 0-10.096.853-14.898 2.536l-121.101 42.464 121.102 42.463c4.798 1.684 9.81 2.537 14.897 2.537 24.813 0 45-20.187 45-45s-20.187-45-45-45z" fill="#ffffff" data-original="#000000" style=""/><path d="m74.98 373.38c-17.545 17.545-17.545 46.094 0 63.639 8.772 8.773 20.296 13.159 31.819 13.159s23.048-4.387 31.821-13.16c3.598-3.598 6.539-7.746 8.741-12.328-.001.001 55.604-115.657 55.604-115.657l-115.661 55.607c-4.582 2.205-8.728 5.145-12.324 8.74z" fill="#ffffff" data-original="#000000" style=""/><path d="m437.02 138.62c17.545-17.545 17.545-46.094 0-63.639-17.545-17.546-46.094-17.546-63.641.001-3.598 3.598-6.538 7.745-8.74 12.326l-55.605 115.659 115.659-55.606c4.582-2.204 8.729-5.144 12.327-8.741z" fill="#ffffff" data-original="#000000" style=""/><circle cx="256" cy="256" r="45" fill="#ffffff" data-original="#000000" style=""/></g></g></svg>
