<?xml version="1.0"?>
<svg xmlns="http://www.w3.org/2000/svg" xmlns:xlink="http://www.w3.org/1999/xlink" xmlns:svgjs="http://svgjs.com/svgjs" version="1.1" width="512" height="512" x="0" y="0" viewBox="0 0 480 480" style="enable-background:new 0 0 512 512" xml:space="preserve"><g><g xmlns="http://www.w3.org/2000/svg"><path d="m111.201 300.024c.949 4.161-1.537 8.336-5.65 9.476-19.321 5.355-33.051 23.051-33.051 43.49v31.01c0 4.418-3.582 8-8 8h-7.63c-18.43 0-33.37-14.94-33.37-33.37v-118.45c0-14.19 9-26.85 22.4-31.51l32.757-11.409c4.504-1.569 9.371 1.127 10.431 5.776z" fill="#ffffff" data-original="#000000" style=""/><path d="m140.856 309.123-8.315-.48c-1.778-.103-3.273-1.368-3.669-3.104l-62.942-276.029c-1.81-7.96-8.77-13.51-16.93-13.51h-30.228c-4.262 0-7.982-3.218-8.255-7.471-.299-4.66 3.388-8.529 7.983-8.529h30.5c15.67 0 29.05 10.67 32.53 25.95l63.457 278.291c.592 2.596-1.472 5.036-4.131 4.882z" fill="#ffffff" data-original="#000000" style=""/><path d="m389.721 313.608c.946 5.104-3.145 9.743-8.327 9.444l-160.249-9.281c-5.032-.291-8.559-5.107-7.288-9.984 2.399-9.203 9.083-21.787 27.783-21.787h117.99c14.04 0 26.09 10.02 28.65 23.83z" fill="#ffffff" data-original="#000000" style=""/><path d="m442.05 342.59-322.73-18.69c-16.658-.961-30.82 12.311-30.82 29.09v56.87c0 7.406 2.776 14.175 7.342 19.319 4.646 5.235 13.264 2.389 13.947-4.577 3.164-32.234 30.446-58.602 64.711-58.602 36.041 0 64.975 29.371 65.002 64.903.003 4.456 3.541 8.097 7.997 8.097h67.002c4.456 0 7.994-3.641 7.997-8.097.024-35.562 28.994-64.903 65.002-64.903 32.331 0 59 23.655 64.114 54.255 1.269 7.593 11.691 9.133 15.026 2.194 1.833-3.813 2.86-8.083 2.86-12.589v-38.18c0-15.42-12.06-28.2-27.45-29.09zm-188.55 52.41h-4c-4.42 0-8-3.58-8-8s3.58-8 8-8h4c4.42 0 8 3.58 8 8s-3.58 8-8 8zm61 0h-26c-4.42 0-8-3.58-8-8s3.58-8 8-8h26c4.42 0 8 3.58 8 8s-3.58 8-8 8z" fill="#ffffff" data-original="#000000" style=""/><path d="m174.5 382c-27.02 0-49 21.98-49 49s21.98 49 49 49 49-21.98 49-49-21.98-49-49-49zm0 61c-6.62 0-12-5.38-12-12s5.38-12 12-12 12 5.38 12 12-5.38 12-12 12z" fill="#ffffff" data-original="#000000" style=""/><path d="m387.5 382c-27.02 0-49 21.98-49 49s21.98 49 49 49 49-21.98 49-49-21.98-49-49-49zm0 61c-6.62 0-12-5.38-12-12s5.38-12 12-12 12 5.38 12 12-5.38 12-12 12z" fill="#ffffff" data-original="#000000" style=""/></g></g></svg>
