<?xml version="1.0"?>
<svg xmlns="http://www.w3.org/2000/svg" xmlns:xlink="http://www.w3.org/1999/xlink" xmlns:svgjs="http://svgjs.com/svgjs" version="1.1" width="512" height="512" x="0" y="0" viewBox="0 0 512.017 512.017" style="enable-background:new 0 0 512 512" xml:space="preserve"><g>
<g xmlns="http://www.w3.org/2000/svg">
	<g>
		<path d="M497.006,424.651c-9.668-9.668-22.519-14.993-36.19-14.993c-0.939,0-1.86,0.085-2.79,0.136l-27.358-27.349v-0.008    l-24.124-24.124c0,0-0.009-0.008-0.017-0.008l-18.074-18.074l18.091-18.091c1.604-1.604,2.5-3.763,2.5-6.033v-36.181    c0-4.719-3.814-8.533-8.533-8.533H364.33c-2.261,0-4.437,0.896-6.033,2.5l-6.025,6.025l-23.902-23.902L497.433,86.944    c1.254-1.254,2.091-2.876,2.381-4.634l12.058-72.363c0.452-2.714-0.435-5.487-2.381-7.433c-1.946-1.946-4.727-2.833-7.432-2.381    l-72.363,12.058c-1.758,0.29-3.379,1.126-4.634,2.381L255.991,183.635L86.929,14.573c-1.254-1.254-2.876-2.091-4.634-2.381    L9.932,0.134C7.227-0.275,4.445,0.57,2.5,2.515C0.554,4.461-0.342,7.234,0.119,9.948l12.066,72.363    c0.29,1.758,1.126,3.379,2.381,4.634l169.062,169.062l-23.902,23.902l-6.024-6.025c-1.604-1.604-3.772-2.5-6.033-2.5h-36.181    c-4.719,0-8.533,3.814-8.533,8.533v36.181c0,2.27,0.896,4.437,2.5,6.033l18.091,18.091l-18.074,18.074l-0.009,0.009    l-24.124,24.124v0.009l-27.358,27.349c-0.93-0.051-1.852-0.137-2.79-0.137c-13.67,0-26.522,5.325-36.181,14.993    c-9.668,9.668-14.993,22.519-14.993,36.181s5.325,26.513,14.984,36.181c9.668,9.668,22.519,14.993,36.19,14.993    s26.522-5.325,36.19-14.993c9.66-9.668,14.985-22.519,14.985-36.181c0-0.939-0.085-1.86-0.137-2.79l69.572-69.572l18.091,18.082    c1.604,1.604,3.772,2.5,6.033,2.5h36.181c4.71,0,8.533-3.814,8.533-8.533v-36.181c0-2.27-0.896-4.437-2.5-6.033l-6.025-6.025    l23.902-23.902l23.902,23.902l-6.025,6.025c-1.604,1.604-2.5,3.763-2.5,6.033v36.181c0,4.719,3.823,8.533,8.533,8.533h36.181    c2.261,0,4.437-0.896,6.033-2.5l18.091-18.082l69.572,69.572c-0.043,0.93-0.137,1.852-0.137,2.79    c0,13.67,5.325,26.513,14.985,36.181c9.668,9.668,22.519,14.993,36.19,14.993s26.522-5.325,36.181-14.993    c9.668-9.668,14.993-22.519,14.993-36.181S506.675,434.319,497.006,424.651z M420.633,79.307l25.6-25.6    c3.328-3.336,8.738-3.336,12.066,0c3.337,3.337,3.337,8.73,0,12.066l-25.6,25.6c-1.664,1.664-3.849,2.5-6.033,2.5    c-2.185,0-4.369-0.836-6.033-2.5C417.297,88.036,417.297,82.643,420.633,79.307z M91.366,91.373c-1.664,1.664-3.849,2.5-6.033,2.5    c-2.185,0-4.369-0.836-6.033-2.5l-25.6-25.6c-3.337-3.337-3.337-8.73,0-12.066c3.328-3.337,8.738-3.337,12.066,0l25.6,25.6    C94.694,82.643,94.694,88.036,91.366,91.373z M104.9,116.973c-3.336-3.337-3.336-8.73,0-12.066c3.328-3.337,8.73-3.337,12.066,0    l108.877,108.877l-12.066,12.066L104.9,116.973z M63.24,472.898c-1.664,1.664-3.849,2.5-6.033,2.5c-2.185,0-4.369-0.836-6.042-2.5    l-12.066-12.066c-3.328-3.337-3.328-8.73,0-12.066c3.337-3.345,8.738-3.328,12.075,0l12.058,12.066    C66.577,464.169,66.577,469.562,63.24,472.898z M97.322,438.799c-1.212-2.534-2.62-4.966-4.241-7.287    c-0.128-0.179-0.256-0.341-0.384-0.521c-1.604-2.227-3.354-4.369-5.333-6.349c-1.98-1.98-4.122-3.729-6.349-5.333    c-0.179-0.128-0.341-0.265-0.521-0.384c-2.313-1.63-4.753-3.038-7.287-4.241l14.148-14.148l24.115,24.115L97.322,438.799z     M147.66,388.461l-24.115-24.115l12.058-12.049l24.115,24.115L147.66,388.461z M223.556,391.994h-24.115l-79.428-79.428V288.45    h24.115l39.723,39.723l0.034,0.034l39.671,39.671V391.994z M201.941,322.131l-12.066-12.066l205.158-205.158    c3.328-3.337,8.73-3.337,12.066,0c3.337,3.337,3.336,8.73,0,12.066L201.941,322.131z M316.083,316.09l-24.124,24.115    l-23.893-23.893l16.077-16.085l32.162-32.162l23.902,23.902L316.083,316.09z M364.339,388.452l-12.049-12.049l24.107-24.115    l12.058,12.049L364.339,388.452z M431.505,418.925c-0.188,0.128-0.358,0.273-0.538,0.401c-2.219,1.604-4.361,3.354-6.332,5.325    c-0.008,0.008-0.008,0.017-0.026,0.034c-1.963,1.963-3.695,4.087-5.291,6.298c-0.128,0.188-0.273,0.358-0.401,0.546    c-1.621,2.313-3.029,4.745-4.241,7.279l-14.157-14.157l24.115-24.115l14.148,14.148    C436.249,415.896,433.817,417.295,431.505,418.925z M472.891,460.832l-12.066,12.066c-1.664,1.664-3.849,2.5-6.042,2.5    c-2.185,0-4.369-0.836-6.033-2.5c-3.336-3.337-3.336-8.73,0-12.066l12.058-12.066c3.337-3.328,8.738-3.345,12.075,0    C476.219,452.094,476.219,457.496,472.891,460.832z" fill="#ffffff" data-original="#000000" style=""/>
	</g>
</g>
<g xmlns="http://www.w3.org/2000/svg">
</g>
<g xmlns="http://www.w3.org/2000/svg">
</g>
<g xmlns="http://www.w3.org/2000/svg">
</g>
<g xmlns="http://www.w3.org/2000/svg">
</g>
<g xmlns="http://www.w3.org/2000/svg">
</g>
<g xmlns="http://www.w3.org/2000/svg">
</g>
<g xmlns="http://www.w3.org/2000/svg">
</g>
<g xmlns="http://www.w3.org/2000/svg">
</g>
<g xmlns="http://www.w3.org/2000/svg">
</g>
<g xmlns="http://www.w3.org/2000/svg">
</g>
<g xmlns="http://www.w3.org/2000/svg">
</g>
<g xmlns="http://www.w3.org/2000/svg">
</g>
<g xmlns="http://www.w3.org/2000/svg">
</g>
<g xmlns="http://www.w3.org/2000/svg">
</g>
<g xmlns="http://www.w3.org/2000/svg">
</g>
</g></svg>
