<?xml version="1.0"?>
<svg xmlns="http://www.w3.org/2000/svg" xmlns:xlink="http://www.w3.org/1999/xlink" xmlns:svgjs="http://svgjs.com/svgjs" version="1.1" width="512" height="512" x="0" y="0" viewBox="0 0 512 512" style="enable-background:new 0 0 512 512" xml:space="preserve"><g>
<g xmlns="http://www.w3.org/2000/svg">
	<g>
		<path d="M294.961,124.799L159.963,3.801c-5.684-5.068-14.238-5.068-19.922,0L5.043,124.799    c-10.279,9.116-3.777,26.206,9.961,26.206H285C298.739,151.005,305.24,133.914,294.961,124.799z" fill="#ffffff" data-original="#000000" style=""/>
	</g>
</g>
<g xmlns="http://www.w3.org/2000/svg">
	<g>
		<path d="M285,482h-15c0-109.56,0-194.658,0-300.996H30.004c0,106.319,0,191.441,0,300.996h-15c-8.291,0-15,6.709-15,15    c0,8.291,6.709,15,15,15h30c8.291,0,15-6.709,15-15v-74.999h30V497c0,8.291,6.709,15,15,15s15-6.709,15-15v-15h59.999v15    c0,8.291,6.709,15,15,15s15-6.709,15-15v-74.999h30V497c0,8.291,6.709,15,15,15h30c8.291,0,15-6.709,15-15    C300,488.709,293.291,482,285,482z M90.003,392.002h-30v-30h30V392.002z M180.002,452.001h-59.999v-30h59.999V452.001z     M180.002,392.002h-59.999v-30h59.999V392.002z M150.002,331.003c-33.091,0-59.999-26.909-59.999-59.999    c0-33.091,26.909-59.999,59.999-59.999c33.091,0,59.999,26.909,59.999,59.999S183.093,331.003,150.002,331.003z M240.001,392.002    h-30v-30h30V392.002z" fill="#ffffff" data-original="#000000" style=""/>
	</g>
</g>
<g xmlns="http://www.w3.org/2000/svg">
	<g>
		<path d="M481.997,452.001h-52.932c-12.041,0-22.866-7.134-27.568-18.179l-33.12-108.27    c-12.279-28.663-38.261-48.489-68.378-53.336v60.232c8.183,2.589,15.026,9.569,18.501,17.732l40.912,125.447    c9.478,22.09,31.113,36.371,55.15,36.371h67.434c16.538,0,30-13.462,30-30S498.535,452.001,481.997,452.001z" fill="#ffffff" data-original="#000000" style=""/>
	</g>
</g>
<g xmlns="http://www.w3.org/2000/svg">
</g>
<g xmlns="http://www.w3.org/2000/svg">
</g>
<g xmlns="http://www.w3.org/2000/svg">
</g>
<g xmlns="http://www.w3.org/2000/svg">
</g>
<g xmlns="http://www.w3.org/2000/svg">
</g>
<g xmlns="http://www.w3.org/2000/svg">
</g>
<g xmlns="http://www.w3.org/2000/svg">
</g>
<g xmlns="http://www.w3.org/2000/svg">
</g>
<g xmlns="http://www.w3.org/2000/svg">
</g>
<g xmlns="http://www.w3.org/2000/svg">
</g>
<g xmlns="http://www.w3.org/2000/svg">
</g>
<g xmlns="http://www.w3.org/2000/svg">
</g>
<g xmlns="http://www.w3.org/2000/svg">
</g>
<g xmlns="http://www.w3.org/2000/svg">
</g>
<g xmlns="http://www.w3.org/2000/svg">
</g>
</g></svg>
