<?xml version="1.0"?>
<svg xmlns="http://www.w3.org/2000/svg" xmlns:xlink="http://www.w3.org/1999/xlink" xmlns:svgjs="http://svgjs.com/svgjs" version="1.1" width="512" height="512" x="0" y="0" viewBox="0 0 512 512" style="enable-background:new 0 0 512 512" xml:space="preserve" class=""><g>
<g xmlns="http://www.w3.org/2000/svg">
	<g>
		<path d="M398.618,82.752c-0.846,0-1.698,0.011-2.555,0.032c-11.206-22.727-28.01-42.172-49.088-56.683    C322.173,9.026,293.092,0,262.876,0c-30.763,0-60.279,9.33-85.357,26.979c-20.881,14.696-37.423,34.211-48.385,56.942    c-5.215-0.778-10.479-1.168-15.75-1.168C54.326,82.752,6.279,130.8,6.279,189.857s48.047,107.105,107.105,107.105h285.234    c59.057,0,107.105-48.047,107.105-107.105S457.675,82.752,398.618,82.752z" fill="#ffffff" data-original="#000000" style="" class=""/>
	</g>
</g>
<g xmlns="http://www.w3.org/2000/svg">
	<g>
		<path d="M158.893,446.634c-8.023-2.547-16.588,1.892-19.135,9.913l-11.302,35.6c-2.547,8.021,1.892,16.588,9.913,19.135    c1.534,0.487,3.087,0.718,4.615,0.718c6.462,0,12.461-4.144,14.52-10.631l11.301-35.6    C171.352,457.748,166.913,449.181,158.893,446.634z" fill="#ffffff" data-original="#000000" style="" class=""/>
	</g>
</g>
<g xmlns="http://www.w3.org/2000/svg">
	<g>
		<path d="M260.612,446.634c-8.021-2.547-16.588,1.892-19.135,9.913l-11.302,35.6c-2.547,8.021,1.892,16.588,9.913,19.135    c1.534,0.487,3.087,0.718,4.615,0.718c6.462,0,12.461-4.144,14.52-10.631l11.302-35.6    C273.071,457.748,268.633,449.181,260.612,446.634z" fill="#ffffff" data-original="#000000" style="" class=""/>
	</g>
</g>
<g xmlns="http://www.w3.org/2000/svg">
	<g>
		<path d="M362.33,446.634c-8.019-2.547-16.588,1.892-19.135,9.913l-11.303,35.6c-2.547,8.021,1.892,16.588,9.913,19.135    c1.534,0.487,3.087,0.718,4.615,0.718c6.462,0,12.46-4.144,14.52-10.631l11.303-35.6    C374.79,457.749,370.351,449.181,362.33,446.634z" fill="#ffffff" data-original="#000000" style="" class=""/>
	</g>
</g>
<g xmlns="http://www.w3.org/2000/svg">
	<g>
		<path d="M119.335,340.395c-8.021-2.545-16.588,1.893-19.135,9.913l-11.302,35.6c-2.547,8.021,1.892,16.588,9.913,19.135    c1.534,0.487,3.087,0.718,4.615,0.718c6.462,0,12.461-4.144,14.52-10.631l11.302-35.6    C131.795,351.509,127.356,342.942,119.335,340.395z" fill="#ffffff" data-original="#000000" style="" class=""/>
	</g>
</g>
<g xmlns="http://www.w3.org/2000/svg">
	<g>
		<path d="M221.055,340.395c-8.022-2.545-16.588,1.893-19.135,9.913l-11.302,35.6c-2.547,8.021,1.892,16.588,9.913,19.135    c1.534,0.487,3.087,0.718,4.615,0.718c6.462,0,12.461-4.144,14.52-10.631l11.301-35.6    C233.513,351.509,229.075,342.942,221.055,340.395z" fill="#ffffff" data-original="#000000" style="" class=""/>
	</g>
</g>
<g xmlns="http://www.w3.org/2000/svg">
	<g>
		<path d="M322.772,340.395c-8.022-2.545-16.588,1.893-19.135,9.913l-11.302,35.6c-2.547,8.021,1.892,16.588,9.913,19.135    c1.534,0.487,3.087,0.718,4.615,0.718c6.462,0,12.461-4.144,14.52-10.631l11.301-35.6    C335.232,351.509,330.794,342.942,322.772,340.395z" fill="#ffffff" data-original="#000000" style="" class=""/>
	</g>
</g>
<g xmlns="http://www.w3.org/2000/svg">
	<g>
		<path d="M424.492,340.395c-8.022-2.545-16.588,1.893-19.135,9.913l-11.302,35.6c-2.547,8.021,1.892,16.588,9.913,19.135    c1.534,0.487,3.087,0.718,4.615,0.718c6.462,0,12.461-4.144,14.52-10.631l11.302-35.6    C436.95,351.509,432.512,342.942,424.492,340.395z" fill="#ffffff" data-original="#000000" style="" class=""/>
	</g>
</g>
<g xmlns="http://www.w3.org/2000/svg">
</g>
<g xmlns="http://www.w3.org/2000/svg">
</g>
<g xmlns="http://www.w3.org/2000/svg">
</g>
<g xmlns="http://www.w3.org/2000/svg">
</g>
<g xmlns="http://www.w3.org/2000/svg">
</g>
<g xmlns="http://www.w3.org/2000/svg">
</g>
<g xmlns="http://www.w3.org/2000/svg">
</g>
<g xmlns="http://www.w3.org/2000/svg">
</g>
<g xmlns="http://www.w3.org/2000/svg">
</g>
<g xmlns="http://www.w3.org/2000/svg">
</g>
<g xmlns="http://www.w3.org/2000/svg">
</g>
<g xmlns="http://www.w3.org/2000/svg">
</g>
<g xmlns="http://www.w3.org/2000/svg">
</g>
<g xmlns="http://www.w3.org/2000/svg">
</g>
<g xmlns="http://www.w3.org/2000/svg">
</g>
</g></svg>
