<?xml version="1.0"?>
<svg xmlns="http://www.w3.org/2000/svg" xmlns:xlink="http://www.w3.org/1999/xlink" xmlns:svgjs="http://svgjs.com/svgjs" version="1.1" width="512" height="512" x="0" y="0" viewBox="0 0 512 512" style="enable-background:new 0 0 512 512" xml:space="preserve"><g><path xmlns="http://www.w3.org/2000/svg" d="m210.6 184.404h90.159v80.644h-90.159z" fill="#ffffff" data-original="#000000" style=""/><path xmlns="http://www.w3.org/2000/svg" d="m15.019 268.598c-2.193 0-4.419-.496-6.527-1.544-7.472-3.716-10.603-12.964-6.992-20.655l60.152-128.14c1.289-2.747 3.34-5.041 5.893-6.591l180.318-109.522c4.711-2.862 10.561-2.862 15.273 0l180.318 109.521c2.525 1.533 4.558 3.793 5.851 6.501l61.154 128.14c3.659 7.668.587 16.936-6.862 20.702s-16.452.604-20.113-7.063l-59.174-123.989-168.811-102.532-168.765 102.505-58.174 123.926c-2.593 5.523-7.956 8.741-13.541 8.741z" fill="#ffffff" data-original="#000000" style=""/><path xmlns="http://www.w3.org/2000/svg" d="m456.41 272.873-55.321-115.919-145.59-88.428-145.455 88.346-54.328 115.733c-6.337 13.501-18.937 22.911-33.277 25.357v214.038h100.251v-158.172c0-8.284 6.716-15 15-15h236.62c8.284 0 15 6.716 15 15v158.172h99.61v-214.149c-13.966-2.6-26.233-11.831-32.51-24.978zm-125.598 7.642c0 8.542-6.728 15.467-15.027 15.467h-120.211c-8.299 0-15.026-6.925-15.026-15.467v-111.578c0-8.542 6.728-15.467 15.026-15.467h120.212c8.299 0 15.027 6.925 15.027 15.467v111.578z" fill="#ffffff" data-original="#000000" style=""/><path xmlns="http://www.w3.org/2000/svg" d="m359.31 380.436-74.335 44.978 74.335 44.978z" fill="#ffffff" data-original="#000000" style=""/><path xmlns="http://www.w3.org/2000/svg" d="m191.456 482h129.088l-64.544-39.054z" fill="#ffffff" data-original="#000000" style=""/><path xmlns="http://www.w3.org/2000/svg" d="m152.69 470.392 74.335-44.978-74.335-44.978z" fill="#ffffff" data-original="#000000" style=""/><path xmlns="http://www.w3.org/2000/svg" d="m256 407.882 64.545-39.054h-129.089z" fill="#ffffff" data-original="#000000" style=""/></g></svg>
