<?xml version="1.0"?>
<svg xmlns="http://www.w3.org/2000/svg" xmlns:xlink="http://www.w3.org/1999/xlink" xmlns:svgjs="http://svgjs.com/svgjs" version="1.1" width="512" height="512" x="0" y="0" viewBox="0 0 512.002 512.002" style="enable-background:new 0 0 512 512" xml:space="preserve"><g><g xmlns="http://www.w3.org/2000/svg"><path d="m228.629 271.002-24.001 30h102.745l-24-30z" fill="#ffffff" data-original="#000000" style=""/><path d="m179.662 331.002c-8.291 8.315-17.606 15.305-27.65 20.856.215 3.113.492 6.148.801 9.144h206.394c.305-2.994.579-6.029.79-9.14-10.047-5.552-19.364-12.543-27.656-20.86z" fill="#ffffff" data-original="#000000" style=""/><path d="m167.011 421.002h178.029c3.577-9.059 6.731-19.041 9.255-30h-196.55c2.531 10.96 5.688 20.942 9.266 30z" fill="#ffffff" data-original="#000000" style=""/><path d="m256.001 512.002c9.184 0 47.781-19.131 73.966-61h-147.883c24.795 39.665 62.802 61 73.917 61z" fill="#ffffff" data-original="#000000" style=""/><path d="m419.095 151.002h-102.392c22.735-30.007 19.836-72.051-6.713-98.729l18.652-29.196c4.46-6.981 2.416-16.256-4.564-20.716-6.983-4.46-16.258-2.416-20.717 4.565l-18.33 28.69c-18.31-7.503-39.205-7.578-57.858.315l-18.531-29.005c-4.462-6.982-13.736-9.025-20.717-4.565-6.98 4.46-9.024 13.735-4.564 20.716l19.054 29.823c-26.087 26.817-28.602 68.421-6.115 98.101h-103.393c-51.229 0-92.906 41.678-92.906 92.907 0 88.156 110.794 126.36 165.453 58.038l90.547-113.183 90.547 113.183c54.903 68.631 165.453 29.683 165.453-58.038 0-51.228-41.678-92.906-92.906-92.906z" fill="#ffffff" data-original="#000000" style=""/></g></g></svg>
