<?xml version="1.0" encoding="UTF-8" standalone="no"?><!DOCTYPE svg PUBLIC "-//W3C//DTD SVG 1.1//EN" "http://www.w3.org/Graphics/SVG/1.1/DTD/svg11.dtd"><svg width="100%" height="100%" viewBox="0 0 1084 1250" version="1.1" xmlns="http://www.w3.org/2000/svg" xmlns:xlink="http://www.w3.org/1999/xlink" xml:space="preserve" xmlns:serif="http://www.serif.com/" style="fill-rule:evenodd;clip-rule:evenodd;stroke-linejoin:round;stroke-miterlimit:2;"><path d="M998.091,696.963c-50.042,-72.684 -75.571,-127.221 -82.375,-217.967c-5.096,-67.817 23.412,-146.129 23.412,-146.129c-35.333,23.533 -35.725,21.012 -59.05,40.287c-121.404,100.342 -153.125,200.763 -156.837,213.746c-0.254,0.921 -0.4,1.45 -0.4,1.45l0.4,-1.45c-0,0 94.887,-371.217 -169.254,-544.079c-21.921,-14.342 -72.484,-42.821 -72.484,-42.821c0,0 131.146,321.517 -103.662,512.254c-46.217,-188.629 -290.209,-190.95 -290.209,-190.95c0,0 18.75,65.721 21.763,81.267c39.542,204.996 -81.654,269.867 -106.271,463.654c2.808,-22.242 1.692,-13.387 -0.017,0.121c-0.008,0.046 -0.016,0.096 -0.016,0.146c0.004,-0.025 0.004,-0.042 0.008,-0.067c-0.008,0.058 -0.012,0.113 -0.017,0.163c-19.212,152.129 53.28,269.954 164.68,349.454c5.2,-53.696 27.212,-106.963 57.804,-151.409c34.621,-50.279 52.287,-88.008 56.975,-150.779c3.5,-46.916 -16.196,-101.1 -16.196,-101.1c24.408,16.296 24.717,14.554 40.846,27.884c68.229,56.391 95.508,112.825 104.721,136.825c0.308,-0.188 0.625,-0.371 0.958,-0.555c-11.638,-52.529 -44.442,-257.229 119.904,-364.783c15.154,-9.904 50.138,-29.608 50.138,-29.608c-0,-0 -93.067,203.5 111.825,368.796c-4.575,-67.65 21.233,-130.113 69.529,-178.242c26.237,-26.125 73.521,-38.679 73.521,-38.679c-0,-0 -12.988,45.491 -15.063,56.233c-27.358,141.846 91.725,252.142 66.283,386.5c-4.77,25.183 -11.604,49.625 -21.133,72.871l11.375,-0c60.4,-32.254 116.454,-74.2 154.842,-131.754c87.346,-130.95 48.091,-299.146 -36,-421.28Z" style="fill:#fff;fill-rule:nonzero;"/></svg>