<?xml version="1.0"?>
<svg xmlns="http://www.w3.org/2000/svg" xmlns:xlink="http://www.w3.org/1999/xlink" xmlns:svgjs="http://svgjs.com/svgjs" version="1.1" width="512" height="512" x="0" y="0" viewBox="0 0 490 490" style="enable-background:new 0 0 512 512" xml:space="preserve" class=""><g>
<g xmlns="http://www.w3.org/2000/svg">
	<path d="M176,446.998h138.003c0,19.371-30.893,42.998-69.001,43.002C206.893,489.996,176,466.369,176,446.998z" fill="#ffffff" data-original="#000000" style="" class=""/>
	<path d="M422.955,388.743l-0.014-0.066C399.613,367.118,385,336.269,385,301.999v-89c0-59.135-36.664-109.703-88.5-130.221V51.5   C296.5,23.104,273.397,0,245,0c-28.398,0-51.5,23.104-51.5,51.5v31.278c-51.836,20.518-88.5,71.086-88.5,130.221v89   c0,34.27-14.613,65.119-37.941,86.678l-0.014,0.066C62.144,392.685,59,398.722,59,405.499c0,3.58,0.888,6.947,2.436,9.918   c3.586,6.877,10.771,11.582,19.064,11.582h164.484H409.5c8.294,0,15.478-4.705,19.064-11.582c1.548-2.971,2.436-6.338,2.436-9.918   C431,398.722,427.856,392.685,422.955,388.743z M245,71c-12.84,0-23.25-10.41-23.25-23.25c0-12.842,10.41-23.25,23.25-23.25   c12.84,0,23.25,10.408,23.25,23.25C268.25,60.59,257.84,71,245,71z" fill="#ffffff" data-original="#000000" style="" class=""/>
</g>
<g xmlns="http://www.w3.org/2000/svg">
</g>
<g xmlns="http://www.w3.org/2000/svg">
</g>
<g xmlns="http://www.w3.org/2000/svg">
</g>
<g xmlns="http://www.w3.org/2000/svg">
</g>
<g xmlns="http://www.w3.org/2000/svg">
</g>
<g xmlns="http://www.w3.org/2000/svg">
</g>
<g xmlns="http://www.w3.org/2000/svg">
</g>
<g xmlns="http://www.w3.org/2000/svg">
</g>
<g xmlns="http://www.w3.org/2000/svg">
</g>
<g xmlns="http://www.w3.org/2000/svg">
</g>
<g xmlns="http://www.w3.org/2000/svg">
</g>
<g xmlns="http://www.w3.org/2000/svg">
</g>
<g xmlns="http://www.w3.org/2000/svg">
</g>
<g xmlns="http://www.w3.org/2000/svg">
</g>
<g xmlns="http://www.w3.org/2000/svg">
</g>
</g></svg>
