<?xml version="1.0" encoding="UTF-8" standalone="no"?><!DOCTYPE svg PUBLIC "-//W3C//DTD SVG 1.1//EN" "http://www.w3.org/Graphics/SVG/1.1/DTD/svg11.dtd"><svg width="100%" height="100%" viewBox="0 0 2134 1392" version="1.1" xmlns="http://www.w3.org/2000/svg" xmlns:xlink="http://www.w3.org/1999/xlink" xml:space="preserve" xmlns:serif="http://www.serif.com/" style="fill-rule:evenodd;clip-rule:evenodd;stroke-linejoin:round;stroke-miterlimit:2;"><g><path d="M38.59,554.998l176.644,73.177l688.119,-285.026l-816.943,-338.395c-19.271,-7.976 -41.277,-5.827 -58.627,5.778c-17.366,11.604 -27.783,31.087 -27.783,51.969l-0,434.766c-0,25.276 15.218,48.063 38.59,57.731Z" style="fill:#fff;fill-rule:nonzero;"/><path d="M794.45,523.552l-0,570.053l209.717,-86.866l-0,-570.052l-209.717,86.865Z" style="fill:#fff;fill-rule:nonzero;"/><path d="M1338.9,298.032l-209.733,86.881l-0,570.052l209.733,-86.865l-0,-570.068Z" style="fill:#fff;fill-rule:nonzero;"/><path d="M459.717,1232.26l209.733,-86.865l-0,-570.068l-209.717,86.865l-0.016,570.068Z" style="fill:#fff;fill-rule:nonzero;"/><path d="M1673.62,159.392l-209.717,86.866l-0,570.052l209.717,-86.866l-0,-570.052Z" style="fill:#fff;fill-rule:nonzero;"/><path d="M2105.55,10.532c-10.433,-6.966 -22.526,-10.531 -34.717,-10.531c-8.089,0 -16.227,1.579 -23.909,4.753l-248.307,102.848l-0,570.068l296.126,-122.656c23.356,-9.684 38.59,-32.471 38.59,-57.747l0,-434.766c0,-20.882 -10.416,-40.365 -27.783,-51.969Z" style="fill:#fff;fill-rule:nonzero;"/><path d="M0,894.386l0,434.749c0,20.882 10.417,40.381 27.783,51.97c10.433,6.966 22.543,10.53 34.733,10.53c8.089,0 16.211,-1.562 23.91,-4.752l248.291,-102.849l0.016,-570.068l-296.143,122.672c-23.372,9.668 -38.59,32.455 -38.59,57.748Z" style="fill:#fff;fill-rule:nonzero;"/><path d="M2094.74,836.638l-176.644,-73.16l-688.119,285.026l816.928,338.379c7.698,3.19 15.82,4.752 23.909,4.752c12.191,0 24.3,-3.564 34.733,-10.53c17.35,-11.589 27.783,-31.088 27.783,-51.97l0,-434.749c0,-25.293 -15.218,-48.08 -38.59,-57.748Z" style="fill:#fff;fill-rule:nonzero;"/></g></svg>