<?xml version="1.0" encoding="UTF-8" standalone="no"?><!DOCTYPE svg PUBLIC "-//W3C//DTD SVG 1.1//EN" "http://www.w3.org/Graphics/SVG/1.1/DTD/svg11.dtd"><svg width="100%" height="100%" viewBox="0 0 1509 1652" version="1.1" xmlns="http://www.w3.org/2000/svg" xmlns:xlink="http://www.w3.org/1999/xlink" xml:space="preserve" xmlns:serif="http://www.serif.com/" style="fill-rule:evenodd;clip-rule:evenodd;stroke-linejoin:round;stroke-miterlimit:2;"><g><path d="M1449.45,267.963c54.967,106.334 78,226.334 41.667,342.667c-16.334,52.333 -43,101 -75.7,144.667c-40.334,55 -93.667,98.666 -132.334,154.666c-74,106.334 -51.666,238.667 -64,360.334c-12.666,129.333 -50,280 -159.666,362.666c-11.7,9 -25.7,18.667 -41.334,18.667l-1.333,0c-17,-2.333 -31,-16 -41.667,-28.333c-34.333,-39 -54.966,-92 -67.666,-141.667c-14.634,-58 -16.3,-118 -27,-176.667c-11,-63.666 -27.667,-126 -45,-188.333c-22.7,-80 -140,-80.333 -162.7,0c-15.967,58.667 -32.967,117.333 -43.334,177.667c-10.333,61 -13,123.666 -28,184c-12,49.333 -32,99.666 -64,139.666c-11.666,14.667 -29,34 -49.666,33.667l-2.667,0c-42.333,-7.667 -79.967,-57.667 -102.667,-90c-44.333,-63.333 -68,-138 -82.633,-213.333c-25,-127.667 6.3,-272.334 -48.333,-393c-26.334,-58 -74,-103.667 -116.667,-149.667c-44.667,-49 -83.333,-103.667 -107.333,-166c-47,-120.667 -30.334,-245.667 25.333,-360c53.333,-109.333 144,-214.333 260.667,-257c241.3,-88.333 509.3,99.667 675.333,258c30.667,30 77.333,-17.667 46.667,-47.667c-65.334,-63 -137.334,-119 -214.367,-166.666c108.667,-51.334 232,-86 351.333,-51c123.734,36.333 219.4,141 277.067,252.666Zm-920.333,-51c41,13 61.333,-50.333 20.666,-63.666c-93,-28.667 -186.333,-25.667 -263.666,38c-76,62.333 -134.667,160.333 -150.334,257.666c-7,42.667 58.667,53.334 65.667,10.667c13.667,-83 65.667,-169.333 132.333,-221.333c58.334,-45 127.334,-42.667 195.334,-21.334Z" style="fill:#fff;fill-rule:nonzero;"/></g></svg>