<?xml version="1.0" encoding="UTF-8" standalone="no"?><!DOCTYPE svg PUBLIC "-//W3C//DTD SVG 1.1//EN" "http://www.w3.org/Graphics/SVG/1.1/DTD/svg11.dtd"><svg width="100%" height="100%" viewBox="0 0 1524 2134" version="1.1" xmlns="http://www.w3.org/2000/svg" xmlns:xlink="http://www.w3.org/1999/xlink" xml:space="preserve" xmlns:serif="http://www.serif.com/" style="fill-rule:evenodd;clip-rule:evenodd;stroke-linejoin:round;stroke-miterlimit:2;"><g><g id="Page-1"><g id="_071---Cell-Door" serif:id="071---Cell-Door"><path id="Shape" d="M457.143,952.343l609.524,-0l-0,-380.953l-609.524,0l-0,380.953Zm419.047,-304.762c63.119,-0 114.286,51.167 114.286,114.285c0,63.119 -51.167,114.286 -114.286,114.286c-63.118,0 -114.285,-51.167 -114.285,-114.286c-0,-63.118 51.167,-114.285 114.285,-114.285Z" style="fill:#fff;fill-rule:nonzero;"/><path id="Shape1" serif:id="Shape" d="M457.143,279.314l-0,215.886l152.381,-0l-0,-283.505c-53.837,14.938 -105.182,37.722 -152.381,67.619Z" style="fill:#fff;fill-rule:nonzero;"/><circle id="Oval" cx="876.19" cy="761.866" r="38.095" style="fill:#fff;"/><path id="Shape2" serif:id="Shape" d="M380.952,337.143c-121.094,107.978 -190.383,262.48 -190.476,424.723l0,1371.43l190.476,-0l0,-228.571c0,-21.04 17.056,-38.096 38.096,-38.096c21.039,0 38.095,17.056 38.095,38.096l-0,228.571l152.381,-0l-0,-1104.76l-152.381,0l-0,723.81c-0,21.039 -17.056,38.095 -38.095,38.095c-21.04,-0 -38.096,-17.056 -38.096,-38.095l0,-1415.2Z" style="fill:#fff;fill-rule:nonzero;"/><path id="Shape3" serif:id="Shape" d="M685.714,196.114l0,299.086l152.381,-0l0,-299.086c-50.512,-7.562 -101.868,-7.562 -152.381,0Z" style="fill:#fff;fill-rule:nonzero;"/><path id="Shape4" serif:id="Shape" d="M1066.67,1264.11l-0,-235.581l-152.381,0l-0,190.476c-0,21.04 -17.056,38.095 -38.096,38.095c-21.039,0 -38.095,-17.055 -38.095,-38.095l0,-190.476l-152.381,0l0,1104.76l152.381,-0l0,-761.905c0,-21.039 17.056,-38.095 38.095,-38.095c21.04,-0 38.096,17.056 38.096,38.095l-0,761.905l152.381,-0l-0,-654.629c-45.643,-15.901 -76.227,-58.942 -76.227,-107.276c0,-48.333 30.584,-91.375 76.227,-107.276Z" style="fill:#fff;fill-rule:nonzero;"/><path id="Shape5" serif:id="Shape" d="M914.286,495.2l152.381,-0l-0,-215.886c-47.2,-29.897 -98.544,-52.681 -152.381,-67.619l-0,283.505Z" style="fill:#fff;fill-rule:nonzero;"/><path id="Shape6" serif:id="Shape" d="M1142.86,1478.67l0,654.629l190.476,-0l0,-1371.43c-0.092,-162.243 -69.382,-316.745 -190.476,-424.723l0,926.971c45.643,15.901 76.227,58.943 76.227,107.276c-0,48.334 -30.584,91.375 -76.227,107.276Z" style="fill:#fff;fill-rule:nonzero;"/><path id="Shape7" serif:id="Shape" d="M732.495,0.533c-403.809,15.238 -732.495,365.714 -732.495,780.952l0,1313.71c0,21.039 17.056,38.095 38.095,38.095l76.191,-0l-0,-1371.43c-0,-357.67 289.949,-647.619 647.619,-647.619c357.67,0 647.619,289.949 647.619,647.619l-0,1371.43l76.19,-0c21.04,-0 38.096,-17.056 38.096,-38.095l-0,-1333.33c-0.259,-207.089 -84.704,-405.174 -233.938,-548.754c-149.235,-143.58 -350.432,-220.315 -557.377,-212.579Z" style="fill:#fff;fill-rule:nonzero;"/><circle id="Oval1" serif:id="Oval" cx="1104.76" cy="1371.39" r="38.095" style="fill:#fff;"/></g></g></g></svg>