<?xml version="1.0"?>
<svg xmlns="http://www.w3.org/2000/svg" xmlns:xlink="http://www.w3.org/1999/xlink" xmlns:svgjs="http://svgjs.com/svgjs" version="1.1" width="512" height="512" x="0" y="0" viewBox="0 0 128 128" style="enable-background:new 0 0 512 512" xml:space="preserve"><g><path xmlns="http://www.w3.org/2000/svg" d="m67.44 90.17a4.716 4.716 0 0 1 -3.35-2.48 4.812 4.812 0 0 1 .36-5.02l8.72-11.97-10.57-14.53a.515.515 0 0 1 .42-.82h3.44a2.287 2.287 0 0 0 1.78-3.62l-14.71-21.59a.52.52 0 0 1 .43-.81h2.98a1.68 1.68 0 0 0 1.23-2.79l-13.37-18.14a2.146 2.146 0 0 0 -3.44 0l-13.37 18.14a1.682 1.682 0 0 0 1.23 2.79h2.98a.52.52 0 0 1 .43.81l-14.71 21.59a2.288 2.288 0 0 0 1.79 3.62h3.44a.52.52 0 0 1 .42.82l-15.7 21.58a2.287 2.287 0 0 0 1.78 3.62h4.62a.52.52 0 0 1 .45.77l-12.09 21.63a2.287 2.287 0 0 0 1.78 3.62h31.6v10.539a2.535 2.535 0 0 0 2.535 2.536h9.075a2.535 2.535 0 0 0 2.535-2.536v-10.539h9.675a4.822 4.822 0 0 1 .43-4.38z" fill="#ffffff" data-original="#000000" style=""/><path xmlns="http://www.w3.org/2000/svg" d="m125.47 104.584-9.364-16.744a.4.4 0 0 1 .351-.6h3.57a1.775 1.775 0 0 0 1.384-2.8l-12.155-16.7a.4.4 0 0 1 .324-.638h2.665a1.775 1.775 0 0 0 1.383-2.805l-11.391-16.72a.4.4 0 0 1 .332-.627h2.306a1.3 1.3 0 0 0 .957-2.161l-10.354-14.044a1.657 1.657 0 0 0 -2.666 0l-10.354 14.044a1.3 1.3 0 0 0 .957 2.161h2.306a.4.4 0 0 1 .332.627l-11.391 16.714a1.775 1.775 0 0 0 1.383 2.809h2.665a.4.4 0 0 1 .324.638l-12.155 16.7a1.775 1.775 0 0 0 1.384 2.8h3.57a.4.4 0 0 1 .351.6l-9.364 16.746a1.775 1.775 0 0 0 1.384 2.8h24.463v10.936a2.14 2.14 0 0 0 2.14 2.14h6.676a2.14 2.14 0 0 0 2.14-2.14v-10.931h24.463a1.775 1.775 0 0 0 1.384-2.805z" fill="#ffffff" data-original="#000000" style=""/></g></svg>
