<?xml version="1.0"?>
<svg xmlns="http://www.w3.org/2000/svg" xmlns:xlink="http://www.w3.org/1999/xlink" xmlns:svgjs="http://svgjs.com/svgjs" version="1.1" width="512" height="512" x="0" y="0" viewBox="0 0 512.191 512.191" style="enable-background:new 0 0 512 512" xml:space="preserve" class=""><g><path xmlns="http://www.w3.org/2000/svg" d="m307.04 192.436c-2.739-10.074-13.126-16.021-23.201-13.28l-51.759 14.077-19.26-23.581c.472-.826 5.722-14.361 20.175-30.033-5.236-5.562-12.662-9.039-20.903-9.039h-51.203c-15.858 0-28.713 12.855-28.713 28.712v111.363l55.738-64.321-8.723-18.09 31.37 38.407c4.743 5.807 12.433 8.231 19.601 6.283l63.599-17.297c10.074-2.74 16.019-13.127 13.279-23.201z" fill="#ffffff" data-original="#000000" style=""/><path xmlns="http://www.w3.org/2000/svg" d="m203.002 237.027c-1.657-2.438-1.816-3.339-5.372-10.543l-65.454 74.909-3.041 78.473-41.07 99.684c-4.971 12.066.78 25.877 12.846 30.849 12.168 5.012 25.919-.882 30.848-12.846l42.657-103.535c1.05-2.548 1.646-5.26 1.761-8.013l3.281-78.409c.014-.331.016-.66.016-.988h11.279l26.984 73.571 15.187 111.56c1.764 12.957 13.7 21.985 26.6 20.226 12.93-1.76 21.986-13.67 20.225-26.6l-15.532-114.102c-.23-1.689-.642-3.349-1.229-4.949l-21.271-57.995c-21.406-18.955-34.745-44.098-38.715-71.292z" fill="#ffffff" data-original="#000000" style=""/><path xmlns="http://www.w3.org/2000/svg" d="m319.992 325.618c58.499 0 105.922-47.423 105.922-105.922s-47.423-105.922-105.922-105.922c-42.845 0-79.745 25.439-96.427 62.036l7.168 5.453 49.982-13.593c13.524-3.678 27.387 2.253 34.353 13.633l35.739-7.983c1.801-7.106 8.22-12.371 15.885-12.371 9.061 0 16.406 7.345 16.406 16.406s-7.345 16.406-16.406 16.406c-4.858 0-9.208-2.123-12.212-5.478l-34.903 7.797c.616 14.071-8.531 27.196-22.692 31.047l-63.598 17.296c-4.244.882-8.768 3.326-15.802 2.044 11.859 45.536 53.256 79.151 102.507 79.151z" fill="#ffffff" data-original="#000000" style=""/><path xmlns="http://www.w3.org/2000/svg" d="m193.329 116.211c23.474 0 42.504-19.029 42.504-42.504 0-6.611-1.51-12.87-4.203-18.45l-80.595 22.675c2.121 21.491 20.246 38.279 42.294 38.279z" fill="#ffffff" data-original="#000000" style=""/><path xmlns="http://www.w3.org/2000/svg" d="m146.7 66.08 82.008-23.073-3.287-34.92c-.53-5.629-6.205-9.304-11.852-7.716l-76.183 21.434c-5.657 1.592-8.568 7.693-6.09 12.763z" fill="#ffffff" data-original="#000000" style=""/></g></svg>
