<?xml version="1.0" encoding="UTF-8" standalone="no"?><!DOCTYPE svg PUBLIC "-//W3C//DTD SVG 1.1//EN" "http://www.w3.org/Graphics/SVG/1.1/DTD/svg11.dtd"><svg width="100%" height="100%" viewBox="0 0 1801 1471" version="1.1" xmlns="http://www.w3.org/2000/svg" xmlns:xlink="http://www.w3.org/1999/xlink" xml:space="preserve" xmlns:serif="http://www.serif.com/" style="fill-rule:evenodd;clip-rule:evenodd;stroke-linejoin:round;stroke-miterlimit:2;"><g id="Volcano"><path d="M633.337,432.598c54.836,0.078 99.94,58.614 100,129.779l0,173.04c0.024,23.72 15.056,43.229 33.333,43.259c8.697,0.106 17.06,-4.398 23.144,-12.463c6.524,-7.996 10.215,-19.15 10.19,-30.796l-0,-86.52c0.06,-71.165 45.164,-129.701 100,-129.779c54.761,0.331 99.744,58.71 100,129.779c-0.082,11.286 3.389,22.14 9.603,30.035c6.225,8.323 14.791,13.025 23.729,13.025c8.651,-0 16.965,-4.406 23.144,-12.263c6.525,-7.996 10.216,-19.151 10.19,-30.797l0,-86.52c0.061,-71.165 45.165,-129.701 100,-129.779l65.157,0c-61.749,-131.417 -117.821,-267.187 -167.957,-406.681c-5.298,-15.713 -17.317,-25.915 -30.533,-25.917l-266.667,0c-13.215,0.002 -25.235,10.204 -30.533,25.917c-50.136,139.494 -106.208,275.264 -167.957,406.681l65.157,0Z" style="fill:#fff;fill-rule:nonzero;"/><path d="M1791,1397.98c-194.339,-270.481 -367.979,-564.817 -518.474,-878.861l-105.86,-0c-18.277,0.03 -33.309,19.539 -33.333,43.259l0,86.52c0.136,34.61 -10.602,67.84 -29.72,91.97c-39.409,48.458 -102.05,48.12 -141.147,-0.761c-18.805,-24.031 -29.323,-56.959 -29.133,-91.209c0.082,-11.286 -3.389,-22.14 -9.603,-30.035c-6.161,-8.467 -14.757,-13.257 -23.73,-13.225c-18.277,0.031 -33.31,19.54 -33.334,43.26l0,86.52c-0.255,71.069 -45.238,129.447 -100,129.779c-54.835,-0.078 -99.939,-58.614 -100,-129.779l0,-173.04c-0.023,-23.72 -15.056,-43.229 -33.333,-43.259l-105.86,-0c-150.49,314.043 -324.124,608.379 -518.457,878.861c-5.793,8.017 -9.02,18.604 -9.02,29.595c-0,23.731 15.047,43.259 33.333,43.259c0.002,0 0.003,0 0.004,0l1733.33,0c0.007,0 0.014,0 0.021,0c18.286,0 33.333,-19.528 33.333,-43.259c0,-10.991 -3.227,-21.578 -9.02,-29.595Z" style="fill:#fff;fill-rule:nonzero;"/></g></svg>