<?xml version="1.0"?>
<svg xmlns="http://www.w3.org/2000/svg" xmlns:xlink="http://www.w3.org/1999/xlink" xmlns:svgjs="http://svgjs.com/svgjs" version="1.1" width="512" height="512" x="0" y="0" viewBox="0 0 98.145 98.145" style="enable-background:new 0 0 512 512" xml:space="preserve"><g>
<g xmlns="http://www.w3.org/2000/svg">
	<g>
		<path d="M51.317,8.06l-2.989,0.585l-0.49,2.804l-0.499-0.499c-0.144,4.131,1.959,8.197,5.812,10.361    c5.499,3.088,12.461,1.134,15.549-4.364c3.089-5.499,1.134-12.46-4.365-15.548C62.936,0.613,61.439,0.158,59.938,0l1.535,1.247    h-5.461V0.279c-2.58,0.637-4.934,2.158-6.56,4.441l-0.172,1.47L51.317,8.06z" fill="#ffffff" data-original="#000000" style=""/>
		<path d="M84.29,32.079l-1.39,0.602l0.569-2.753c-0.849-1.148-2.236-1.866-3.778-1.799c-1.367,0.065-2.735,0.054-4.093-0.02    l-0.823,0.414l-0.441,2.729l-2.131-2.178l-6.436,1.491l4.381-3.069c-13.609-2.264-15.817-4.087-17.345-5.57    c0,0-0.873-0.903-2.002-1.504c-1.081-0.576-2.408-0.996-2.408-0.996l-0.032-0.012c-3.809-1.061-8.91-0.334-11.209,3.76    l-3.393,6.042l0.067,0.238l2.598,0.945l-1.871,2.411l-0.262,6.099l-2.965-5.36l-6.516,11.603    c-1.648,2.935-1.114,6.185,0.558,8.829l-2.104,6.772l3.182-1.19l-2.762,4.711l-1.28-0.752l-2.4,7.727l0.047,0.165l2.598,0.944    l-2.538,1.688l0.623,2.777l-2.182-0.9l-4.469,14.383c-0.99,3.188,0.792,6.575,3.98,7.566c0.597,0.186,1.201,0.273,1.795,0.273    c2.578,0,4.966-1.662,5.771-4.254l2.837-9.13l-2.631-1.542l3.52-1.318l6.507-20.944c3.286,2.342,6.934,5.071,9.824,7.354    l0.694-2.84l2.053,5.069c0.939,0.791,1.673,1.45,2.104,1.903c0.827,2.652,2.241,12.332,3.108,20.26    c0.339,3.096,2.958,5.388,6.001,5.388c0.221,0,0.442-0.012,0.666-0.036c3.319-0.363,5.716-3.349,5.353-6.666    c-0.079-0.717-0.156-1.408-0.233-2.084l-1.818,1.518l1.048-5.358l0.319,0.063c-1.983-15.914-3.483-18.418-4.013-19.297    c-0.779-1.297-2.712-3.229-5.754-5.771h-3.897v-3.118c-1.92-1.484-4.105-3.111-6.569-4.891l2.736-4.872l4.286-7.631    c1.235,1.939,2.644,3.903,4.057,5.397l1.694-1.623l0.53,2.572l2.521,1.134l-1.251,0.705c4.447,2.788,11.002,5.282,12.5,5.834    c0.507,0.188,1.024,0.276,1.535,0.276c0.781,0,1.536-0.22,2.202-0.601l0.539-2.609l1.615-0.449    c0.371-2.073-0.773-4.177-2.817-4.934c-3.876-1.435-10.222-4.235-12.204-5.975c-1.185-1.041-2.846-3.474-4.346-5.978    c5.573,1.801,12.406,3.34,19.51,3.34c0.749,0,1.501-0.017,2.254-0.053c2.446-0.116,4.334-2.192,4.22-4.638    C84.325,32.255,84.3,32.169,84.29,32.079z" fill="#ffffff" data-original="#000000" style=""/>
	</g>
</g>
<g xmlns="http://www.w3.org/2000/svg">
</g>
<g xmlns="http://www.w3.org/2000/svg">
</g>
<g xmlns="http://www.w3.org/2000/svg">
</g>
<g xmlns="http://www.w3.org/2000/svg">
</g>
<g xmlns="http://www.w3.org/2000/svg">
</g>
<g xmlns="http://www.w3.org/2000/svg">
</g>
<g xmlns="http://www.w3.org/2000/svg">
</g>
<g xmlns="http://www.w3.org/2000/svg">
</g>
<g xmlns="http://www.w3.org/2000/svg">
</g>
<g xmlns="http://www.w3.org/2000/svg">
</g>
<g xmlns="http://www.w3.org/2000/svg">
</g>
<g xmlns="http://www.w3.org/2000/svg">
</g>
<g xmlns="http://www.w3.org/2000/svg">
</g>
<g xmlns="http://www.w3.org/2000/svg">
</g>
<g xmlns="http://www.w3.org/2000/svg">
</g>
</g></svg>
